<svg viewBox="0 0 164 26" fill="none" xmlns="http://www.w3.org/2000/svg">
<path d="M0.5 25V1.72727H6.81818V11.1364H7.13636L14.1364 1.72727H21.5L13.6364 12.0909L21.6818 25H14.1364L8.90909 16.2727L6.81818 19V25H0.5ZM26.7295 25.2727C25.6159 25.2727 24.6311 25.0909 23.775 24.7273C22.9265 24.3561 22.2598 23.7955 21.775 23.0455C21.2902 22.2955 21.0477 21.3409 21.0477 20.1818C21.0477 19.2273 21.2106 18.4129 21.5364 17.7386C21.8621 17.0568 22.3167 16.5 22.9 16.0682C23.4833 15.6364 24.1614 15.3068 24.9341 15.0795C25.7144 14.8523 26.5553 14.7045 27.4568 14.6364C28.4341 14.5606 29.2182 14.4697 29.8091 14.3636C30.4076 14.25 30.8394 14.0947 31.1045 13.8977C31.3697 13.6932 31.5023 13.4242 31.5023 13.0909V13.0455C31.5023 12.5909 31.328 12.2424 30.9795 12C30.6311 11.7576 30.1841 11.6364 29.6386 11.6364C29.0402 11.6364 28.5515 11.7689 28.1727 12.0341C27.8015 12.2917 27.578 12.6894 27.5023 13.2273H21.7295C21.8053 12.1667 22.1424 11.1894 22.7409 10.2955C23.347 9.39394 24.2295 8.67424 25.3886 8.13636C26.5477 7.59091 27.9947 7.31818 29.7295 7.31818C30.9795 7.31818 32.1008 7.46591 33.0932 7.76136C34.0856 8.04924 34.9303 8.45455 35.6273 8.97727C36.3242 9.49242 36.8545 10.0985 37.2182 10.7955C37.5894 11.4848 37.775 12.2348 37.775 13.0455V25H31.9114V22.5455H31.775C31.4265 23.197 31.0023 23.7235 30.5023 24.125C30.0098 24.5265 29.4455 24.8182 28.8091 25C28.1803 25.1818 27.4871 25.2727 26.7295 25.2727ZM28.775 21.3182C29.2523 21.3182 29.6992 21.2197 30.1159 21.0227C30.5402 20.8258 30.8848 20.5417 31.15 20.1705C31.4152 19.7992 31.5477 19.3485 31.5477 18.8182V17.3636C31.3811 17.4318 31.203 17.4962 31.0136 17.5568C30.8318 17.6174 30.6348 17.6742 30.4227 17.7273C30.2182 17.7803 29.9985 17.8295 29.7636 17.875C29.5364 17.9205 29.2977 17.9621 29.0477 18C28.5629 18.0758 28.1652 18.2008 27.8545 18.375C27.5515 18.5417 27.3242 18.75 27.1727 19C27.0288 19.2424 26.9568 19.5152 26.9568 19.8182C26.9568 20.303 27.1273 20.6742 27.4682 20.9318C27.8091 21.1894 28.2447 21.3182 28.775 21.3182ZM39.034 25V21.5455L46.6703 12.4091V12.3182H39.3067V7.54545H54.0794V11.3636L47.1249 20.1364V20.2273H54.3522V25H39.034ZM61.2173 20.8636L61.2627 13.4091H62.0809L66.3082 7.54545H73.3536L66.2627 16.6818H64.49L61.2173 20.8636ZM55.5809 25V1.72727H61.8536V25H55.5809ZM66.3536 25L62.3536 18.0909L66.4445 13.6364L73.5355 25H66.3536ZM73.3872 25V7.54545H79.6599V25H73.3872ZM76.5235 5.72727C75.675 5.72727 74.9478 5.44697 74.3417 4.88636C73.7356 4.32576 73.4326 3.65151 73.4326 2.86364C73.4326 2.07576 73.7356 1.40151 74.3417 0.840908C74.9478 0.280303 75.675 0 76.5235 0C77.3796 0 78.1069 0.280303 78.7053 0.840908C79.3114 1.40151 79.6144 2.07576 79.6144 2.86364C79.6144 3.65151 79.3114 4.32576 78.7053 4.88636C78.1069 5.44697 77.3796 5.72727 76.5235 5.72727ZM94.9377 1.72727H101.256V16.6364C101.256 18.4091 100.832 19.9432 99.9832 21.2386C99.1423 22.5265 97.968 23.5227 96.4605 24.2273C94.9529 24.9242 93.2029 25.2727 91.2105 25.2727C89.2029 25.2727 87.4453 24.9242 85.9377 24.2273C84.4302 23.5227 83.2559 22.5265 82.415 21.2386C81.5817 19.9432 81.165 18.4091 81.165 16.6364V1.72727H87.4832V16.0909C87.4832 16.8106 87.6423 17.4545 87.9605 18.0227C88.2786 18.5833 88.718 19.0227 89.2786 19.3409C89.8468 19.6591 90.4908 19.8182 91.2105 19.8182C91.9377 19.8182 92.5817 19.6591 93.1423 19.3409C93.7029 19.0227 94.1423 18.5833 94.4605 18.0227C94.7786 17.4545 94.9377 16.8106 94.9377 16.0909V1.72727ZM102.659 25V1.72727H119.431V6.81818H108.977V10.8182H118.568V15.9091H108.977V19.9091H119.386V25H102.659ZM129.92 25H120.965V1.72727H129.829C132.223 1.72727 134.291 2.19318 136.033 3.125C137.783 4.04924 139.132 5.38257 140.079 7.125C141.033 8.85985 141.51 10.9394 141.51 13.3636C141.51 15.7879 141.037 17.8712 140.09 19.6136C139.143 21.3485 137.802 22.6818 136.067 23.6136C134.332 24.5379 132.283 25 129.92 25ZM127.283 19.6364H129.692C130.844 19.6364 131.825 19.4508 132.635 19.0795C133.454 18.7083 134.075 18.0682 134.499 17.1591C134.931 16.25 135.147 14.9848 135.147 13.3636C135.147 11.7424 134.927 10.4773 134.488 9.56818C134.056 8.65909 133.42 8.01894 132.579 7.64773C131.745 7.27651 130.723 7.09091 129.51 7.09091H127.283V19.6364ZM146.45 25H139.632L147.314 1.72727H155.95L163.632 25H156.814L151.723 8.13636H151.541L146.45 25ZM145.178 15.8182H157.996V20.5455H145.178V15.8182Z" />
</svg>
